<svg width="181" height="91" viewBox="0 0 181 91" fill="none" xmlns="http://www.w3.org/2000/svg">
<path d="M180.645 0.751953H0.342529V90.9034H180.645V0.751953Z" fill="#545454"/>
<path d="M165.088 63.7607C165.616 63.7607 166.086 63.8492 166.498 64.0262C166.907 64.2031 167.253 64.4436 167.529 64.7478C167.806 65.0519 168.016 65.403 168.162 65.8067C168.309 66.2076 168.381 66.6361 168.381 67.0923C168.381 67.543 168.309 67.9687 168.162 68.3724C168.016 68.7761 167.806 69.13 167.529 69.4341C167.253 69.7382 166.91 69.9787 166.498 70.1557C166.089 70.3326 165.619 70.4211 165.088 70.4211C164.557 70.4211 164.09 70.3326 163.683 70.1557C163.277 69.9787 162.931 69.7382 162.652 69.4341C162.373 69.13 162.16 68.7761 162.013 68.3724C161.867 67.9687 161.795 67.5402 161.795 67.0923C161.795 66.6361 161.867 66.2076 162.013 65.8067C162.16 65.4058 162.373 65.0519 162.652 64.7478C162.931 64.4436 163.274 64.2031 163.683 64.0262C164.092 63.8492 164.56 63.7607 165.088 63.7607ZM162.492 67.0702C162.492 67.4462 162.55 67.8001 162.666 68.1319C162.782 68.4636 162.951 68.7512 163.172 68.9972C163.393 69.2433 163.667 69.4368 163.987 69.5751C164.311 69.7161 164.679 69.7852 165.091 69.7852C165.503 69.7852 165.873 69.7161 166.199 69.5751C166.525 69.4341 166.799 69.2433 167.02 68.9972C167.242 68.7512 167.41 68.4636 167.526 68.1346C167.642 67.8056 167.701 67.4545 167.701 67.0757C167.701 66.6997 167.642 66.3458 167.526 66.014C167.41 65.6823 167.242 65.3947 167.02 65.1487C166.799 64.9026 166.525 64.7091 166.199 64.5708C165.873 64.4298 165.505 64.3607 165.091 64.3607C164.676 64.3607 164.308 64.4298 163.987 64.5708C163.664 64.7118 163.393 64.9026 163.172 65.1487C162.951 65.3947 162.782 65.6823 162.666 66.014C162.55 66.3458 162.492 66.7025 162.492 67.0868V67.0702ZM165.718 67.4794L166.694 68.6185V68.7456H166L165.052 67.5596H164.46V68.7456H163.83V65.3256H165.397C165.646 65.3256 165.856 65.3754 166.028 65.4721C166.199 65.5689 166.332 65.6905 166.429 65.8371C166.525 65.9836 166.584 66.1468 166.603 66.3237C166.622 66.5034 166.6 66.6721 166.545 66.8296C166.487 66.9872 166.39 67.1282 166.252 67.2499C166.116 67.3715 165.937 67.4517 165.718 67.4876V67.4794ZM164.46 65.92V67.0232H165.381C165.574 67.0232 165.724 66.9651 165.823 66.849C165.923 66.7329 165.973 66.6085 165.973 66.4702C165.973 66.332 165.926 66.2076 165.832 66.0915C165.738 65.9753 165.594 65.9173 165.397 65.9173H164.46V65.92Z" fill="#1B1B1B"/>
<path d="M29.6687 67.1945V76.7689C29.6687 77.2998 30.0973 77.7283 30.6281 77.7283H32.3257H38.6764C38.9197 77.7283 39.116 77.532 39.116 77.2887V76.133C39.116 75.7681 38.8202 75.475 38.458 75.475H32.3285V72.6909H37.3908C37.7557 72.6909 38.0488 72.3951 38.0488 72.0329V71.0956C38.0488 70.7307 37.753 70.4376 37.3908 70.4376H32.3285V68.0074C32.3285 67.764 32.5247 67.5678 32.7681 67.5678H38.458C38.8229 67.5678 39.116 67.2719 39.116 66.9097V65.9725C39.116 65.6075 38.8202 65.3145 38.458 65.3145L31.5543 65.3172C30.512 65.3117 29.6687 66.1549 29.6687 67.1945Z" fill="#1B1B1B"/>
<path d="M45.0575 67.5678H48.2398V77.2942C48.2398 77.5375 48.4361 77.7338 48.6794 77.7338H50.4571C50.7004 77.7338 50.8967 77.5375 50.8967 77.2942V67.5678H54.079C54.4439 67.5678 54.737 67.2719 54.737 66.9097V65.9725C54.737 65.6075 54.4412 65.3145 54.079 65.3145H45.0575C44.6925 65.3145 44.3995 65.6103 44.3995 65.9725V66.9097C44.3995 67.2719 44.6925 67.5678 45.0575 67.5678Z" fill="#1B1B1B"/>
<path d="M59.5311 67.5678H62.7134V77.2942C62.7134 77.5375 62.9097 77.7338 63.153 77.7338H64.9308C65.1741 77.7338 65.3704 77.5375 65.3704 77.2942V67.5678H68.5526C68.9176 67.5678 69.2106 67.2719 69.2106 66.9097V65.9725C69.2106 65.6075 68.9148 65.3145 68.5526 65.3145H59.5311C59.1662 65.3145 58.8731 65.6103 58.8731 65.9725V66.9097C58.8704 67.2719 59.1662 67.5678 59.5311 67.5678Z" fill="#1B1B1B"/>
<path d="M82.9737 67.1997V77.294C82.9737 77.5373 83.17 77.7336 83.4133 77.7336H85.191C85.4343 77.7336 85.6307 77.5373 85.6307 77.294V72.804H90.5105C90.8754 72.804 91.1685 72.5081 91.1685 72.1459V71.2087C91.1685 70.8437 90.8727 70.5507 90.5105 70.5507H85.6307V68.0098C85.6307 67.7665 85.827 67.5702 86.0703 67.5702H91.5749C91.9399 67.5702 92.2329 67.2744 92.2329 66.9122V65.9749C92.2329 65.61 91.9371 65.3169 91.5749 65.3169H84.8593C83.817 65.3114 82.9737 66.1574 82.9737 67.1997Z" fill="#1B1B1B"/>
<path d="M105.802 72.2732C106.394 71.9663 106.85 71.5323 107.174 70.971C107.497 70.4098 107.658 69.7601 107.658 69.0191C107.658 68.2781 107.497 67.6284 107.174 67.0672C106.85 66.5059 106.394 66.0719 105.805 65.765C105.216 65.4581 104.533 65.3032 103.759 65.3032L99.4297 65.3088C98.4067 65.3115 97.58 66.1382 97.58 67.1612V77.2941C97.58 77.5374 97.7763 77.7337 98.0196 77.7337H99.7974C100.041 77.7337 100.237 77.5374 100.237 77.2941V72.735H101.849L104.898 77.5291C104.979 77.6562 105.12 77.7337 105.269 77.7337H107.431C107.782 77.7337 107.989 77.3438 107.799 77.0535L104.876 72.6133C105.208 72.5359 105.515 72.4225 105.802 72.2732ZM100.24 67.9989C100.24 67.7556 100.436 67.5593 100.679 67.5593H103.546C103.826 67.5593 104.066 67.6201 104.274 67.739C104.481 67.8579 104.641 68.0293 104.755 68.2505C104.868 68.4717 104.923 68.7288 104.923 69.0191C104.918 69.3094 104.857 69.5665 104.744 69.7877C104.63 70.0089 104.47 70.1803 104.263 70.2992C104.055 70.4181 103.817 70.4789 103.544 70.4789H100.237V67.9989H100.24Z" fill="#1B1B1B"/>
<path d="M120.6 65.7509C119.82 65.3721 118.921 65.1841 117.898 65.1841C116.875 65.1841 115.977 65.3749 115.197 65.7509C114.418 66.1296 113.815 66.666 113.389 67.3572C112.963 68.0484 112.748 68.8502 112.748 69.7626V73.2821C112.748 74.1945 112.961 74.9963 113.389 75.6875C113.815 76.3787 114.418 76.915 115.197 77.2938C115.977 77.6726 116.875 77.8606 117.898 77.8606C118.919 77.8606 119.82 77.6726 120.6 77.2938C121.379 76.915 121.982 76.3787 122.408 75.6875C122.834 74.9963 123.049 74.1945 123.049 73.2821V69.7626C123.049 68.8502 122.836 68.0484 122.408 67.3572C121.979 66.666 121.377 66.1296 120.6 65.7509ZM120.293 73.3402C120.293 73.7743 120.193 74.1558 119.997 74.4848C119.801 74.8138 119.519 75.0709 119.159 75.2506C118.797 75.4303 118.377 75.5188 117.898 75.5188C117.42 75.5188 117 75.4303 116.638 75.2506C116.275 75.0709 115.996 74.8166 115.8 74.4848C115.604 74.1558 115.504 73.7743 115.504 73.3402V69.7017C115.504 69.2677 115.604 68.8861 115.8 68.5571C115.996 68.2281 116.275 67.971 116.638 67.7913C117 67.6116 117.42 67.5231 117.898 67.5231C118.377 67.5231 118.797 67.6116 119.159 67.7913C119.521 67.971 119.801 68.2253 119.997 68.5571C120.193 68.8861 120.293 69.2704 120.293 69.7017V73.3402Z" fill="#1B1B1B"/>
<path d="M154.745 65.311H145.723C145.358 65.311 145.065 65.6069 145.065 65.9691V66.9063C145.065 67.2713 145.361 67.5643 145.723 67.5643H148.905V77.2908C148.905 77.5341 149.102 77.7304 149.345 77.7304H151.123C151.366 77.7304 151.562 77.5341 151.562 77.2908V67.5643H154.745C155.11 67.5643 155.403 67.2685 155.403 66.9063V65.9691C155.403 65.6069 155.107 65.311 154.745 65.311Z" fill="#1B1B1B"/>
<path d="M12.6072 76.8491V67.2C12.6072 66.1577 13.4505 65.3145 14.4928 65.3145C14.6006 65.3145 14.714 65.3145 14.8329 65.3145C15.9969 65.3145 16.7323 65.5716 17.5921 67.435L20.6583 74.3193C20.7551 74.5378 20.8297 74.6069 20.9458 74.6069C21.1089 74.6069 21.1559 74.4935 21.1559 74.2641L21.1172 66.1964C21.1172 65.6324 21.4324 65.3172 21.9964 65.3172H22.8563C23.3401 65.3172 23.7355 65.7098 23.7355 66.1964V75.8234C23.7355 76.8767 22.8839 77.7311 21.8278 77.7311C21.7255 77.7311 21.6204 77.7311 21.5098 77.7311C20.3459 77.7311 19.6104 77.4739 18.7506 75.6105L15.6844 68.7262C15.5877 68.5078 15.513 68.4387 15.3969 68.4387C15.2338 68.4387 15.1868 68.552 15.1868 68.7815L15.2255 76.8491C15.2255 77.4131 14.9103 77.7283 14.3463 77.7283H13.4864C12.9998 77.7283 12.6072 77.3357 12.6072 76.8491Z" fill="#1B1B1B"/>
<path d="M128.806 76.8491V67.2C128.806 66.1577 129.649 65.3145 130.691 65.3145C130.799 65.3145 130.912 65.3145 131.031 65.3145C132.195 65.3145 132.931 65.5716 133.79 67.435L136.857 74.3193C136.953 74.5378 137.028 74.6069 137.144 74.6069C137.307 74.6069 137.354 74.4935 137.354 74.2641L137.316 66.1964C137.316 65.6324 137.631 65.3172 138.195 65.3172H139.055C139.538 65.3172 139.934 65.7098 139.934 66.1964V75.8234C139.934 76.8767 139.082 77.7311 138.026 77.7311C137.924 77.7311 137.819 77.7311 137.708 77.7311C136.544 77.7311 135.809 77.4739 134.949 75.6105L131.883 68.7262C131.786 68.5078 131.711 68.4387 131.595 68.4387C131.432 68.4387 131.385 68.552 131.385 68.7815L131.424 76.8491C131.424 77.4131 131.109 77.7283 130.545 77.7283H129.685C129.201 77.7283 128.806 77.3357 128.806 76.8491Z" fill="#1B1B1B"/>
<path d="M88.7924 39.6242L80.1509 44.8531C79.7925 45.0706 79.6778 45.5366 79.8952 45.895L84.5219 53.54C84.9855 54.3047 85.982 54.5508 86.7467 54.0872L95.0417 49.0687L89.4209 39.7772C89.2895 39.5621 89.0075 39.4928 88.7924 39.6242Z" fill="#1B1B1B"/>
<path d="M91.9612 29.4486C91.8322 29.2335 91.5502 29.1642 91.3351 29.2956L89.9753 30.1177L76.258 38.4174C75.8995 38.6349 75.7848 39.1009 76.0023 39.4594L78.2702 43.2089C78.4876 43.5674 78.9536 43.6821 79.3121 43.4646L89.0194 37.5905C89.4113 37.354 89.9228 37.4782 90.1593 37.8701L96.0335 47.5775C96.251 47.9359 96.717 48.0506 97.0754 47.8332L100.825 45.5653C101.183 45.3478 101.298 44.8818 101.081 44.5233L91.9612 29.4486Z" fill="#1B1B1B"/>
<path d="M92.2719 26.8337L100.122 22.0828C100.481 21.8653 100.596 21.3993 100.378 21.0408L96.466 14.5765C96.0024 13.8117 95.0059 13.5656 94.2411 14.0292L70.924 28.1385C70.207 28.5734 69.9776 29.5054 70.4102 30.2248L74.3772 36.7728C74.5947 37.1313 75.0607 37.246 75.4192 37.0285L89.1365 28.7288L92.2719 26.8337Z" fill="#1B1B1B"/>
<path d="M110.578 37.8937L102.006 23.7247C101.788 23.3662 101.322 23.2515 100.964 23.469L93.5026 27.9833C93.2875 28.1123 93.2182 28.3943 93.3497 28.6094L102.472 43.6866C102.689 44.045 103.155 44.1598 103.513 43.9423L110.066 39.9776C110.781 39.5451 111.01 38.6107 110.578 37.8937Z" fill="#1B1B1B"/>
</svg>
