<svg width="182" height="91" viewBox="0 0 182 91" fill="none" xmlns="http://www.w3.org/2000/svg">
<path d="M181.043 0.0927734H0.740051V90.2442H181.043V0.0927734Z" fill="#545454"/>
<path d="M65.3785 61.035H74.8745L85.903 29.9327H76.377L65.3785 61.035ZM103.362 61.035H112.768L117.666 47.332C119.62 44.0264 123.556 44.7777 122.835 47.6625L118.117 61.035H127.944L132.601 47.963C133.834 44.6875 138.972 44.4772 137.86 48.3537L133.473 61.035H142.969L148.258 46.0097C150.031 40.9012 143.78 34.0497 133.022 41.5923C131.76 38.1666 126.441 36.0029 119.379 40.9913L119.86 38.9479H111.055L103.362 61.035ZM148.438 30.3534C148.739 29.3618 149.64 28.6706 150.692 28.6706C151.984 28.6706 153.036 29.7524 153.036 31.0446C153.036 32.3368 151.954 33.3885 150.662 33.3885C149.37 33.3885 148.318 32.3368 148.318 31.0446C148.318 30.7742 148.348 30.5638 148.438 30.3534L148.168 30.2332C147.747 31.6456 148.528 33.1181 149.911 33.5388C150.151 33.6289 150.421 33.659 150.692 33.659C152.164 33.659 153.336 32.457 153.336 31.0146C153.336 29.5421 152.134 28.3701 150.692 28.3701C149.52 28.3701 148.498 29.1214 148.168 30.2332L148.438 30.3534ZM150.211 30.9545H150.121V30.1731H151.233C151.714 30.3234 151.503 30.9545 151.143 30.9545H150.211V31.2249H150.872C151.684 31.3451 151.293 32.0964 151.473 32.3368H151.744C151.533 32.0363 151.894 31.4653 151.383 31.1648C151.714 31.0146 151.894 30.6239 151.744 30.2633C151.653 30.0229 151.413 29.8726 151.143 29.8426H149.85V32.2767H150.121V31.1949H150.241L150.211 30.9545ZM93.7161 38.9479H84.8212L79.5924 53.6426C76.978 61.9365 85.3321 64.7011 93.2954 58.9615L92.7545 61.065H101.229L109.042 38.9779H99.9666L95.3389 51.5991C94.2571 54.6943 88.2169 56.4072 89.1485 51.6893L93.7161 38.9479ZM48.3399 29.9027H57.8659L54.32 40.1199C66.0697 33.1481 71.9596 42.6441 66.7909 52.2001C60.2399 65.4524 47.9192 62.2971 47.3483 58.5708L46.3265 61.035H37.4015L48.3399 29.9027ZM52.8174 46.0999C52.3066 46.5807 51.8558 47.1517 51.4351 47.7226C49.6621 50.2769 49.572 52.9815 51.345 54.1534C52.9677 55.2352 55.7924 54.1234 57.5654 51.9597C59.4285 49.6459 59.729 46.19 57.926 45.0181C56.3934 44.0264 54.5003 44.5373 52.8174 46.0999ZM34.3965 48.4438C34.3965 48.4438 35.0877 46.761 36.2897 47.6325L38.0326 49.1049C38.0326 49.1049 38.9341 49.7961 38.7238 48.5039L37.672 39.5489C37.672 39.5489 37.4917 38.1365 36.5 39.0981L30.2796 45.4087C30.2796 45.4087 29.4081 46.2201 30.0392 46.3403L32.5634 46.3102C32.5634 46.3102 34.3364 46.2802 33.6152 48.534L29.2579 61.035H28.4465L32.894 48.2936C32.894 48.2936 33.1945 47.0014 32.323 47.0916L29.919 47.1216C28.6869 47.1216 28.6569 45.7994 29.4682 45.0181L36.1995 38.2267C36.6503 37.6858 37.4917 37.6257 38.0326 38.1065C38.3031 38.3469 38.4533 38.6774 38.4834 39.038C38.7238 41.0514 39.6253 48.8645 39.6253 48.8645C39.7755 49.4655 39.3849 50.0666 38.7839 50.1868C38.3632 50.2769 37.9124 50.1267 37.6419 49.766L36.2897 48.6542C36.2897 48.6542 35.4483 47.7527 35.0877 48.9246L30.8806 61.0049H30.0692L34.3965 48.4438Z" fill="#1B1B1B"/>
</svg>
