<svg width="181" height="92" viewBox="0 0 181 92" fill="none" xmlns="http://www.w3.org/2000/svg">
<path d="M180.645 0.865723H0.342529V91.0172H180.645V0.865723Z" fill="#545454"/>
<path d="M101.669 33.4459L122.879 33.4449L122.881 38.4111H108.193L108.192 43.2551H120.778V48.2734H108.192V52.9882H123.117L123.118 58.4702H101.669V33.4459Z" fill="#1B1B1B"/>
<path d="M146.858 33.4126L168.147 33.4466V38.4038H153.454L153.453 43.2488H165.823V48.2671H153.453V52.9809H168.38L168.381 58.48H146.878L146.858 33.4126Z" fill="#1B1B1B"/>
<path d="M16.2905 33.4102H22.7692V42.8167H35.2418V33.4102L41.7195 33.4022V58.4746L35.2478 58.4696L35.2418 48.7455H22.7692V58.4676L16.2905 58.4666V33.4102Z" fill="#1B1B1B"/>
<path d="M78.1998 33.4426L100.2 33.4486V38.3898L84.8478 38.3908L84.8488 43.1627H97.7601L97.7551 48.2681H84.8488V58.48H78.1998V33.4426Z" fill="#1B1B1B"/>
<path d="M57.0909 33.4346H62.8013L76.7624 58.478H69.7738L66.7288 53.1542H52.8799L49.8569 58.481H43.1769L57.0909 33.4346ZM59.7372 39.6509L55.1126 48.1239H64.3058L59.7372 39.6509Z" fill="#1B1B1B"/>
<path d="M46.2558 33.4399H52.3378V37.7901H46.2558V33.4399Z" fill="#1B1B1B"/>
<path d="M73.4185 33.4454L67.3124 33.4324V37.7886H73.4185V33.4454Z" fill="#1B1B1B"/>
<path d="M131.819 33.4423L124.791 33.4503L124.8 58.4706L145.426 58.4746L145.414 52.8984L131.816 52.8954L131.819 33.4423Z" fill="#1B1B1B"/>
</svg>
