<svg width="181" height="92" viewBox="0 0 181 92" fill="none" xmlns="http://www.w3.org/2000/svg">
<path d="M180.645 0.979492H0.342529V91.1309H180.645V0.979492Z" fill="#545454"/>
<path d="M47.1164 28.1411V40.2853H166.992V28.1411H47.1164ZM12.6073 47.7586V63.9691H36.1263V60.9468H23.6799V57.4299H36.1263V54.3252H23.6249V50.7809H36.1263V47.7586H12.6073Z" fill="#1B1B1B"/>
<path d="M52.0345 47.7588C49.3112 47.7588 47.1164 49.9745 47.1164 52.7044V63.9693H68.4648C68.4648 63.9693 68.4923 61.801 68.4923 61.579C68.4923 61.3603 68.3351 61.2537 68.1626 61.2493C67.9955 61.2431 54.1776 61.2493 54.1776 61.2493V57.2379H66.3217V54.875C66.3217 54.6717 66.1931 54.5453 65.992 54.5453H54.1776V50.4514H68.4648V48.0336C68.4648 47.816 68.3351 47.7588 68.1626 47.7588H52.0345ZM76.2954 47.7588C73.5775 47.7588 71.3772 49.9745 71.3772 52.7044V63.9693H92.918V54.875C92.918 54.7035 92.7542 54.5453 92.5883 54.5453C92.4399 54.5453 85.0029 54.5727 83.1917 54.5727C82.9829 54.5727 82.862 54.7123 82.862 54.8749V57.2378H90.1155V61.0019H78.411V50.4239H92.918V48.0335C92.918 47.828 92.7905 47.7588 92.5883 47.7588L76.2954 47.7588ZM101.078 47.7588C98.3603 47.7588 96.1601 49.9734 96.1601 52.7044V63.9693H117.701V54.875C117.701 54.7035 117.562 54.5453 117.399 54.5453C117.249 54.5453 109.814 54.5727 108.002 54.5727C107.794 54.5727 107.7 54.7112 107.7 54.8749C107.7 55.0387 107.672 57.2378 107.672 57.2378H114.926V61.0019H103.221V50.4239H117.701V48.0335C117.701 47.828 117.6 47.7588 117.399 47.7588L101.078 47.7588ZM125.916 47.7588C123.194 47.7588 120.998 49.9745 120.998 52.7044V63.9693H142.346V61.579C142.346 61.3603 142.216 61.2537 142.044 61.2493C141.876 61.2431 128.059 61.2493 128.059 61.2493V57.2379H140.176V54.875C140.176 54.6717 140.075 54.5453 139.874 54.5453H128.059V50.4514H142.346V48.0336C142.346 47.8171 142.188 47.7588 142.017 47.7588H125.916ZM150.122 47.7588C147.405 47.7588 145.231 49.9734 145.231 52.7044V63.9693H152.265V57.2379C152.265 57.2379 159.776 63.6759 159.518 63.5023C159.844 63.7638 159.994 63.9759 160.315 63.9693H168.036C168.795 63.9693 168.063 63.3924 168.063 63.3924L160.81 57.2379H162.733C165.086 57.2379 166.992 54.8453 166.992 52.4846C166.992 50.125 165.108 47.7588 162.761 47.7588H150.122ZM152.265 50.4514H161.771C162.586 50.4514 163.612 51.0867 163.612 52.5121C163.612 53.799 162.523 54.5727 161.771 54.5727H152.265V50.4514Z" fill="#1B1B1B"/>
</svg>
