<svg width="300" height="31" viewBox="0 0 300 31" fill="none" xmlns="http://www.w3.org/2000/svg">
<path d="M3.37183 30.4389V6.55431L19.2014 30.4389H22.0467V1.74533H19.2014V25.6299L3.41191 1.74533H0.48645V30.4389H3.37183Z" fill="white"/>
<path d="M45.8467 30.4389V27.7939H31.54V18.1273H37.574V14.1206H31.54V4.39027H45.8066V1.74533H28.6546V30.4389H45.8467Z" fill="white"/>
<path d="M53.9657 16.1322L43.9871 30.4389H47.3534L55.729 18.3363C56.4504 19.6187 57.6125 21.382 58.5743 22.7445L64.0245 30.4389H67.4709L57.4522 16.052L67.3106 1.74533H63.9844L55.6489 14.0082C54.9676 12.7258 54.0459 11.203 52.6833 9.27939L47.3534 1.74533H43.947L53.9657 16.1322Z" fill="white"/>
<path d="M68.0041 4.39027H76.8206V30.4389H79.7059V4.39027H88.5625V1.74533H68.0041V4.39027Z" fill="white"/>
<path d="M115.404 30.8797C121.255 30.8797 126.144 27.4333 127.507 22.3037H125.383C124.06 26.3913 120.173 29.0363 115.444 29.0363C108.752 29.0363 104.183 23.8666 104.183 16.2123C104.183 8.55804 108.752 3.34832 115.444 3.34832C120.173 3.34832 123.94 6.11348 125.222 10.5217H127.346C126.104 5.11161 121.375 1.50488 115.564 1.50488C107.67 1.50488 102.219 7.5161 102.219 16.2123C102.219 24.8685 107.629 30.8797 115.404 30.8797Z" fill="white"/>
<path d="M157.395 16.2123C157.395 7.59625 151.825 1.50488 143.93 1.50488C136.075 1.50488 130.505 7.59625 130.505 16.2123C130.505 24.8284 136.035 30.9198 143.93 30.9198C151.825 30.9198 157.395 24.8284 157.395 16.2123ZM155.431 16.2123C155.431 23.7865 150.703 29.0763 143.93 29.0763C137.197 29.0763 132.469 23.7865 132.469 16.2123C132.469 8.63819 137.197 3.34832 143.93 3.34832C150.703 3.34832 155.431 8.63819 155.431 16.2123Z" fill="white"/>
<path d="M164.318 30.4389V5.15169L181.029 30.4389H182.952V1.98578H181.029V27.1928L164.358 1.98578H162.394V30.4389H164.318Z" fill="white"/>
<path d="M201.161 30.8797C207.012 30.8797 211.901 27.4333 213.263 22.3037H211.139C209.817 26.3913 205.93 29.0363 201.201 29.0363C194.508 29.0363 189.94 23.8666 189.94 16.2123C189.94 8.55804 194.508 3.34832 201.201 3.34832C205.93 3.34832 209.697 6.11348 210.979 10.5217H213.103C211.861 5.11161 207.132 1.50488 201.321 1.50488C193.426 1.50488 187.976 7.5161 187.976 16.2123C187.976 24.8685 193.386 30.8797 201.161 30.8797Z" fill="white"/>
<path d="M234.816 30.4389V28.6756H219.989V17.0539H233.454V15.2906H219.989V3.74907H234.776V1.98578H218.065V30.4389H234.816Z" fill="white"/>
<path d="M251.061 19.7389C256.431 19.7389 259.797 15.8116 259.797 10.8022C259.797 5.51236 256.471 1.98578 251.061 1.98578H240.441V30.4389H242.365V19.7389H251.061ZM250.981 3.74907C255.149 3.74907 257.834 6.43408 257.834 10.7221C257.834 14.97 255.189 17.9756 250.741 17.9756H242.365V3.74907H250.981Z" fill="white"/>
<path d="M260.981 3.74907H269.918V30.4389H271.841V3.74907H280.778V1.98578H260.981V3.74907Z" fill="white"/>
<path d="M292.964 12.6761C296.543 12.6761 299.234 9.98443 299.234 6.40569C299.234 2.82696 296.543 0.135254 292.964 0.135254C289.385 0.135254 286.632 2.85754 286.632 6.40569C286.632 9.95384 289.355 12.6761 292.964 12.6761ZM292.964 11.6362C289.966 11.6362 287.764 9.40327 287.764 6.40569C287.764 3.40812 289.966 1.17523 292.964 1.17523C295.931 1.17523 298.133 3.40812 298.133 6.40569C298.133 9.40327 295.931 11.6362 292.964 11.6362ZM291.618 9.83149V7.26214H293.301L294.646 9.83149H295.9L294.34 6.95627C295.289 6.6198 295.809 5.85512 295.809 4.93749C295.809 3.59164 294.769 2.79637 293.239 2.79637H290.486V9.83149H291.618ZM294.585 4.99867C294.585 5.76335 294.065 6.19158 293.209 6.19158H291.618V3.86693H293.209C294.065 3.86693 294.585 4.23398 294.585 4.99867Z" fill="white"/>
</svg>
